<svg width="200" height="49" viewBox="0 0 200 49" fill="none" xmlns="http://www.w3.org/2000/svg">
<g filter="url(#filter0_d_11791_4137)">
<rect x="2.89062" y="5.68628" width="188.699" height="37.7398" rx="6.28997" fill="#2F80ED"/>
<path d="M70.7741 25.3374H72.1894C72.1157 26.0156 71.9216 26.6225 71.6071 27.1581C71.2926 27.6937 70.8479 28.1188 70.2729 28.4333C69.698 28.7429 68.9805 28.8977 68.1206 28.8977C67.4916 28.8977 66.9191 28.7797 66.4031 28.5439C65.892 28.308 65.4522 27.9738 65.0837 27.5414C64.7151 27.104 64.4301 26.5807 64.2286 25.9714C64.0321 25.3571 63.9338 24.674 63.9338 23.9222V22.8534C63.9338 22.1015 64.0321 21.421 64.2286 20.8116C64.4301 20.1974 64.7176 19.6716 65.0911 19.2342C65.4694 18.7969 65.924 18.4602 66.4547 18.2244C66.9854 17.9885 67.5825 17.8706 68.2459 17.8706C69.0567 17.8706 69.7422 18.0229 70.3024 18.3276C70.8626 18.6322 71.2975 19.0548 71.6071 19.5954C71.9216 20.131 72.1157 20.7526 72.1894 21.4603H70.7741C70.7053 20.959 70.5776 20.5291 70.3908 20.1703C70.2041 19.8067 69.9388 19.5266 69.5948 19.33C69.2508 19.1335 68.8012 19.0352 68.2459 19.0352C67.7692 19.0352 67.3491 19.1261 66.9854 19.3079C66.6267 19.4897 66.3245 19.7477 66.0788 20.0819C65.838 20.416 65.6562 20.8165 65.5333 21.2834C65.4105 21.7502 65.349 22.2686 65.349 22.8387V23.9222C65.349 24.448 65.4031 24.9419 65.5112 25.4038C65.6242 25.8657 65.7938 26.2711 66.0198 26.62C66.2459 26.9689 66.5333 27.2441 66.8822 27.4456C67.2311 27.6421 67.6439 27.7404 68.1206 27.7404C68.725 27.7404 69.2066 27.6446 69.5653 27.4529C69.924 27.2613 70.1943 26.9861 70.3761 26.6274C70.5628 26.2687 70.6955 25.8387 70.7741 25.3374ZM75.2852 22.0278V28.7502H73.9216V20.7748H75.2484L75.2852 22.0278ZM77.7767 20.7305L77.7693 21.9984C77.6563 21.9738 77.5482 21.959 77.445 21.9541C77.3467 21.9443 77.2337 21.9394 77.1059 21.9394C76.7914 21.9394 76.5137 21.9885 76.273 22.0868C76.0322 22.1851 75.8282 22.3227 75.6612 22.4996C75.4941 22.6765 75.3614 22.8878 75.2631 23.1335C75.1698 23.3743 75.1083 23.6396 75.0788 23.9296L74.6956 24.1507C74.6956 23.6691 74.7422 23.217 74.8356 22.7944C74.9339 22.3718 75.0838 21.9984 75.2852 21.674C75.4867 21.3448 75.7422 21.0893 76.0518 20.9074C76.3663 20.7207 76.7398 20.6273 77.1722 20.6273C77.2705 20.6273 77.3835 20.6396 77.5113 20.6642C77.6391 20.6838 77.7275 20.706 77.7767 20.7305ZM82.1993 28.8977C81.644 28.8977 81.1403 28.8043 80.6882 28.6176C80.241 28.4259 79.8553 28.1581 79.531 27.8141C79.2116 27.4701 78.9659 27.0623 78.7939 26.5905C78.6219 26.1188 78.5359 25.6028 78.5359 25.0426V24.733C78.5359 24.0844 78.6317 23.507 78.8233 23.0008C79.015 22.4898 79.2754 22.0573 79.6047 21.7035C79.9339 21.3497 80.3074 21.0819 80.7251 20.9001C81.1428 20.7182 81.5752 20.6273 82.0224 20.6273C82.5924 20.6273 83.0838 20.7256 83.4966 20.9222C83.9143 21.1187 84.2558 21.3939 84.5212 21.7477C84.7865 22.0966 84.9831 22.5094 85.1109 22.9861C85.2386 23.4578 85.3025 23.9738 85.3025 24.534V25.1458H79.3467V24.0328H83.9389V23.9296C83.9192 23.5758 83.8455 23.2318 83.7177 22.8976C83.5949 22.5635 83.3983 22.2883 83.128 22.0721C82.8578 21.8558 82.4892 21.7477 82.0224 21.7477C81.7128 21.7477 81.4278 21.8141 81.1673 21.9468C80.9069 22.0745 80.6833 22.2662 80.4966 22.5217C80.3098 22.7772 80.1649 23.0893 80.0617 23.4578C79.9585 23.8264 79.9069 24.2514 79.9069 24.733V25.0426C79.9069 25.421 79.9585 25.7772 80.0617 26.1114C80.1698 26.4406 80.3246 26.7306 80.5261 26.9812C80.7325 27.2318 80.9806 27.4284 81.2705 27.5709C81.5654 27.7134 81.8995 27.7846 82.273 27.7846C82.7546 27.7846 83.1624 27.6864 83.4966 27.4898C83.8308 27.2932 84.1231 27.0303 84.3738 26.7011L85.1993 27.3571C85.0273 27.6176 84.8086 27.8657 84.5433 28.1016C84.2779 28.3375 83.9511 28.5291 83.5629 28.6765C83.1796 28.824 82.7251 28.8977 82.1993 28.8977ZM91.5974 27.3866V23.2809C91.5974 22.9664 91.5335 22.6937 91.4057 22.4627C91.2829 22.2269 91.0962 22.045 90.8455 21.9173C90.5949 21.7895 90.2853 21.7256 89.9168 21.7256C89.5728 21.7256 89.2706 21.7846 89.0102 21.9025C88.7546 22.0205 88.5531 22.1753 88.4057 22.3669C88.2632 22.5586 88.192 22.7649 88.192 22.9861H86.8283C86.8283 22.7011 86.902 22.4185 87.0495 22.1384C87.1969 21.8583 87.4082 21.6052 87.6834 21.3792C87.9635 21.1482 88.2976 20.9664 88.6858 20.8337C89.079 20.6961 89.5163 20.6273 89.9979 20.6273C90.5777 20.6273 91.0888 20.7256 91.5311 20.9222C91.9782 21.1187 92.3271 21.416 92.5777 21.8141C92.8333 22.2072 92.961 22.7011 92.961 23.2957V27.0107C92.961 27.276 92.9832 27.5586 93.0274 27.8583C93.0765 28.1581 93.1478 28.4161 93.2411 28.6323V28.7502H91.8185C91.7497 28.593 91.6957 28.3841 91.6564 28.1237C91.6171 27.8583 91.5974 27.6126 91.5974 27.3866ZM91.8333 23.9148L91.848 24.8731H90.4696C90.0814 24.8731 89.735 24.905 89.4303 24.9689C89.1256 25.0279 88.8701 25.1188 88.6637 25.2416C88.4573 25.3645 88.3001 25.5193 88.192 25.706C88.0839 25.8878 88.0298 26.1016 88.0298 26.3473C88.0298 26.5979 88.0863 26.8264 88.1993 27.0328C88.3124 27.2392 88.4819 27.4038 88.7079 27.5266C88.9389 27.6446 89.2215 27.7036 89.5556 27.7036C89.9733 27.7036 90.3419 27.6151 90.6613 27.4382C90.9807 27.2613 91.2338 27.0451 91.4205 26.7895C91.6121 26.534 91.7153 26.2859 91.7301 26.0451L92.3124 26.7011C92.278 26.9075 92.1846 27.136 92.0323 27.3866C91.88 27.6372 91.676 27.878 91.4205 28.109C91.1699 28.335 90.8701 28.5242 90.5212 28.6765C90.1772 28.824 89.789 28.8977 89.3566 28.8977C88.816 28.8977 88.3418 28.792 87.934 28.5807C87.531 28.3694 87.2165 28.0868 86.9905 27.733C86.7694 27.3743 86.6588 26.9738 86.6588 26.5316C86.6588 26.104 86.7423 25.7281 86.9094 25.4038C87.0765 25.0745 87.3173 24.8018 87.6318 24.5856C87.9463 24.3645 88.3246 24.1974 88.7669 24.0844C89.2092 23.9713 89.703 23.9148 90.2485 23.9148H91.8333ZM98.4451 20.7748V21.8214H94.133V20.7748H98.4451ZM95.5925 18.8362H96.9562V26.7748C96.9562 27.0451 96.9979 27.249 97.0815 27.3866C97.165 27.5242 97.2731 27.6151 97.4058 27.6593C97.5385 27.7036 97.681 27.7257 97.8333 27.7257C97.9463 27.7257 98.0643 27.7158 98.1871 27.6962C98.3149 27.6716 98.4107 27.652 98.4746 27.6372L98.482 28.7502C98.3739 28.7846 98.2314 28.8166 98.0544 28.8461C97.8825 28.8805 97.6736 28.8977 97.4279 28.8977C97.0938 28.8977 96.7866 28.8313 96.5065 28.6986C96.2264 28.566 96.0028 28.3448 95.8358 28.0353C95.6736 27.7208 95.5925 27.2981 95.5925 26.7674V18.8362ZM103.354 28.8977C102.799 28.8977 102.295 28.8043 101.843 28.6176C101.396 28.4259 101.01 28.1581 100.686 27.8141C100.367 27.4701 100.121 27.0623 99.9488 26.5905C99.7768 26.1188 99.6908 25.6028 99.6908 25.0426V24.733C99.6908 24.0844 99.7867 23.507 99.9783 23.0008C100.17 22.4898 100.43 22.0573 100.76 21.7035C101.089 21.3497 101.462 21.0819 101.88 20.9001C102.298 20.7182 102.73 20.6273 103.177 20.6273C103.747 20.6273 104.239 20.7256 104.652 20.9222C105.069 21.1187 105.411 21.3939 105.676 21.7477C105.941 22.0966 106.138 22.5094 106.266 22.9861C106.394 23.4578 106.457 23.9738 106.457 24.534V25.1458H100.502V24.0328H105.094V23.9296C105.074 23.5758 105 23.2318 104.873 22.8976C104.75 22.5635 104.553 22.2883 104.283 22.0721C104.013 21.8558 103.644 21.7477 103.177 21.7477C102.868 21.7477 102.583 21.8141 102.322 21.9468C102.062 22.0745 101.838 22.2662 101.652 22.5217C101.465 22.7772 101.32 23.0893 101.217 23.4578C101.113 23.8264 101.062 24.2514 101.062 24.733V25.0426C101.062 25.421 101.113 25.7772 101.217 26.1114C101.325 26.4406 101.48 26.7306 101.681 26.9812C101.887 27.2318 102.136 27.4284 102.425 27.5709C102.72 27.7134 103.054 27.7846 103.428 27.7846C103.91 27.7846 104.317 27.6864 104.652 27.4898C104.986 27.2932 105.278 27.0303 105.529 26.7011L106.354 27.3571C106.182 27.6176 105.964 27.8657 105.698 28.1016C105.433 28.3375 105.106 28.5291 104.718 28.6765C104.335 28.824 103.88 28.8977 103.354 28.8977ZM114.986 27.7773C115.31 27.7773 115.61 27.7109 115.885 27.5782C116.16 27.4456 116.386 27.2637 116.563 27.0328C116.74 26.7969 116.841 26.5291 116.865 26.2293H118.163C118.138 26.7011 117.978 27.1409 117.684 27.5488C117.394 27.9517 117.013 28.2785 116.541 28.5291C116.069 28.7748 115.551 28.8977 114.986 28.8977C114.386 28.8977 113.863 28.792 113.416 28.5807C112.973 28.3694 112.605 28.0795 112.31 27.7109C112.02 27.3424 111.801 26.9198 111.654 26.4431C111.512 25.9615 111.44 25.4529 111.44 24.9173V24.6077C111.44 24.0721 111.512 23.5659 111.654 23.0893C111.801 22.6077 112.02 22.1826 112.31 21.8141C112.605 21.4455 112.973 21.1556 113.416 20.9443C113.863 20.733 114.386 20.6273 114.986 20.6273C115.61 20.6273 116.155 20.7551 116.622 21.0106C117.089 21.2612 117.455 21.6052 117.72 22.0426C117.991 22.475 118.138 22.9664 118.163 23.5168H116.865C116.841 23.1875 116.747 22.8902 116.585 22.6249C116.428 22.3595 116.212 22.1482 115.937 21.991C115.666 21.8288 115.349 21.7477 114.986 21.7477C114.568 21.7477 114.217 21.8313 113.932 21.9984C113.652 22.1605 113.428 22.3816 113.261 22.6617C113.099 22.9369 112.981 23.2441 112.907 23.5831C112.838 23.9173 112.804 24.2588 112.804 24.6077V24.9173C112.804 25.2662 112.838 25.6102 112.907 25.9492C112.976 26.2883 113.091 26.5954 113.254 26.8706C113.421 27.1458 113.644 27.3669 113.924 27.534C114.209 27.6962 114.563 27.7773 114.986 27.7773ZM124.399 27.3866V23.2809C124.399 22.9664 124.335 22.6937 124.207 22.4627C124.084 22.2269 123.897 22.045 123.647 21.9173C123.396 21.7895 123.087 21.7256 122.718 21.7256C122.374 21.7256 122.072 21.7846 121.811 21.9025C121.556 22.0205 121.354 22.1753 121.207 22.3669C121.064 22.5586 120.993 22.7649 120.993 22.9861H119.63C119.63 22.7011 119.703 22.4185 119.851 22.1384C119.998 21.8583 120.209 21.6052 120.485 21.3792C120.765 21.1482 121.099 20.9664 121.487 20.8337C121.88 20.6961 122.318 20.6273 122.799 20.6273C123.379 20.6273 123.89 20.7256 124.332 20.9222C124.779 21.1187 125.128 21.416 125.379 21.8141C125.635 22.2072 125.762 22.7011 125.762 23.2957V27.0107C125.762 27.276 125.784 27.5586 125.829 27.8583C125.878 28.1581 125.949 28.4161 126.042 28.6323V28.7502H124.62C124.551 28.593 124.497 28.3841 124.458 28.1237C124.418 27.8583 124.399 27.6126 124.399 27.3866ZM124.635 23.9148L124.649 24.8731H123.271C122.883 24.8731 122.536 24.905 122.232 24.9689C121.927 25.0279 121.671 25.1188 121.465 25.2416C121.259 25.3645 121.101 25.5193 120.993 25.706C120.885 25.8878 120.831 26.1016 120.831 26.3473C120.831 26.5979 120.888 26.8264 121.001 27.0328C121.114 27.2392 121.283 27.4038 121.509 27.5266C121.74 27.6446 122.023 27.7036 122.357 27.7036C122.775 27.7036 123.143 27.6151 123.463 27.4382C123.782 27.2613 124.035 27.0451 124.222 26.7895C124.413 26.534 124.517 26.2859 124.531 26.0451L125.114 26.7011C125.079 26.9075 124.986 27.136 124.834 27.3866C124.681 27.6372 124.477 27.878 124.222 28.109C123.971 28.335 123.671 28.5242 123.322 28.6765C122.978 28.824 122.59 28.8977 122.158 28.8977C121.617 28.8977 121.143 28.792 120.735 28.5807C120.332 28.3694 120.018 28.0868 119.792 27.733C119.571 27.3743 119.46 26.9738 119.46 26.5316C119.46 26.104 119.544 25.7281 119.711 25.4038C119.878 25.0745 120.118 24.8018 120.433 24.5856C120.747 24.3645 121.126 24.1974 121.568 24.0844C122.01 23.9713 122.504 23.9148 123.05 23.9148H124.635ZM129.271 22.0278V28.7502H127.907V20.7748H129.234L129.271 22.0278ZM131.762 20.7305L131.755 21.9984C131.642 21.9738 131.534 21.959 131.431 21.9541C131.332 21.9443 131.219 21.9394 131.092 21.9394C130.777 21.9394 130.499 21.9885 130.259 22.0868C130.018 22.1851 129.814 22.3227 129.647 22.4996C129.48 22.6765 129.347 22.8878 129.249 23.1335C129.155 23.3743 129.094 23.6396 129.065 23.9296L128.681 24.1507C128.681 23.6691 128.728 23.217 128.821 22.7944C128.92 22.3718 129.069 21.9984 129.271 21.674C129.472 21.3448 129.728 21.0893 130.037 20.9074C130.352 20.7207 130.725 20.6273 131.158 20.6273C131.256 20.6273 131.369 20.6396 131.497 20.6642C131.625 20.6838 131.713 20.706 131.762 20.7305ZM137.902 27.2023V17.4283H139.273V28.7502H138.02L137.902 27.2023ZM132.536 24.851V24.6962C132.536 24.0868 132.61 23.534 132.757 23.0377C132.91 22.5364 133.124 22.1065 133.399 21.7477C133.679 21.389 134.011 21.1138 134.394 20.9222C134.782 20.7256 135.214 20.6273 135.691 20.6273C136.192 20.6273 136.63 20.7158 137.003 20.8927C137.382 21.0647 137.701 21.3178 137.961 21.6519C138.227 21.9812 138.436 22.3792 138.588 22.846C138.74 23.3129 138.846 23.8411 138.905 24.4308V25.1089C138.851 25.6937 138.745 26.2195 138.588 26.6863C138.436 27.1532 138.227 27.5512 137.961 27.8805C137.701 28.2097 137.382 28.4628 137.003 28.6397C136.625 28.8117 136.183 28.8977 135.676 28.8977C135.21 28.8977 134.782 28.7969 134.394 28.5955C134.011 28.394 133.679 28.1114 133.399 27.7478C133.124 27.3841 132.91 26.9566 132.757 26.4652C132.61 25.9689 132.536 25.4308 132.536 24.851ZM133.907 24.6962V24.851C133.907 25.249 133.947 25.6225 134.025 25.9714C134.109 26.3203 134.237 26.6274 134.409 26.8927C134.581 27.1581 134.799 27.3669 135.065 27.5193C135.33 27.6667 135.647 27.7404 136.015 27.7404C136.468 27.7404 136.839 27.6446 137.128 27.4529C137.423 27.2613 137.659 27.0082 137.836 26.6937C138.013 26.3792 138.151 26.0377 138.249 25.6691V23.8927C138.19 23.6224 138.104 23.362 137.991 23.1114C137.883 22.8559 137.74 22.6298 137.563 22.4332C137.391 22.2318 137.178 22.0721 136.922 21.9541C136.671 21.8362 136.374 21.7772 136.03 21.7772C135.657 21.7772 135.335 21.8558 135.065 22.0131C134.799 22.1654 134.581 22.3767 134.409 22.647C134.237 22.9124 134.109 23.2219 134.025 23.5758C133.947 23.9247 133.907 24.2981 133.907 24.6962Z" fill="white"/>
</g>
<defs>
<filter id="filter0_d_11791_4137" x="0.374635" y="0.6543" width="198.763" height="47.8038" filterUnits="userSpaceOnUse" color-interpolation-filters="sRGB">
<feFlood flood-opacity="0" result="BackgroundImageFix"/>
<feColorMatrix in="SourceAlpha" type="matrix" values="0 0 0 0 0 0 0 0 0 0 0 0 0 0 0 0 0 0 127 0" result="hardAlpha"/>
<feOffset dx="2.51599"/>
<feGaussianBlur stdDeviation="2.51599"/>
<feColorMatrix type="matrix" values="0 0 0 0 0.184314 0 0 0 0 0.501961 0 0 0 0 0.929412 0 0 0 1 0"/>
<feBlend mode="normal" in2="BackgroundImageFix" result="effect1_dropShadow_11791_4137"/>
<feBlend mode="normal" in="SourceGraphic" in2="effect1_dropShadow_11791_4137" result="shape"/>
</filter>
</defs>
</svg>
