<svg width="132" height="38" viewBox="0 0 132 38" fill="none" xmlns="http://www.w3.org/2000/svg">
<g filter="url(#filter0_d_27_14268)">
<rect x="2" y="4" width="124" height="30" rx="5" fill="#2F80ED"/>
<path d="M58.4632 22.0801V23H54.1975V22.0801H58.4632ZM54.4202 14.4688V23H53.2893V14.4688H54.4202ZM59.3069 19.9004V19.7656C59.3069 19.3086 59.3733 18.8848 59.5061 18.4941C59.6389 18.0996 59.8303 17.7578 60.0803 17.4688C60.3303 17.1758 60.6331 16.9492 60.9885 16.7891C61.344 16.625 61.7425 16.543 62.1839 16.543C62.6292 16.543 63.0296 16.625 63.385 16.7891C63.7444 16.9492 64.0491 17.1758 64.2991 17.4688C64.553 17.7578 64.7464 18.0996 64.8792 18.4941C65.012 18.8848 65.0784 19.3086 65.0784 19.7656V19.9004C65.0784 20.3574 65.012 20.7812 64.8792 21.1719C64.7464 21.5625 64.553 21.9043 64.2991 22.1973C64.0491 22.4863 63.7464 22.7129 63.3909 22.877C63.0393 23.0371 62.6409 23.1172 62.1956 23.1172C61.7503 23.1172 61.3499 23.0371 60.9944 22.877C60.6389 22.7129 60.3342 22.4863 60.0803 22.1973C59.8303 21.9043 59.6389 21.5625 59.5061 21.1719C59.3733 20.7812 59.3069 20.3574 59.3069 19.9004ZM60.3909 19.7656V19.9004C60.3909 20.2168 60.428 20.5156 60.5022 20.7969C60.5764 21.0742 60.6878 21.3203 60.8362 21.5352C60.9885 21.75 61.178 21.9199 61.4046 22.0449C61.6311 22.166 61.8948 22.2266 62.1956 22.2266C62.4925 22.2266 62.7522 22.166 62.9749 22.0449C63.2014 21.9199 63.3889 21.75 63.5374 21.5352C63.6858 21.3203 63.7971 21.0742 63.8714 20.7969C63.9495 20.5156 63.9885 20.2168 63.9885 19.9004V19.7656C63.9885 19.4531 63.9495 19.1582 63.8714 18.8809C63.7971 18.5996 63.6839 18.3516 63.5315 18.1367C63.3831 17.918 63.1956 17.7461 62.969 17.6211C62.7464 17.4961 62.4846 17.4336 62.1839 17.4336C61.887 17.4336 61.6253 17.4961 61.3987 17.6211C61.176 17.7461 60.9885 17.918 60.8362 18.1367C60.6878 18.3516 60.5764 18.5996 60.5022 18.8809C60.428 19.1582 60.3909 19.4531 60.3909 19.7656ZM70.5452 16.6602H71.5296V22.8652C71.5296 23.4238 71.4163 23.9004 71.1897 24.2949C70.9632 24.6895 70.6467 24.9883 70.2405 25.1914C69.8382 25.3984 69.3733 25.502 68.846 25.502C68.6272 25.502 68.3694 25.4668 68.0725 25.3965C67.7796 25.3301 67.4905 25.2148 67.2053 25.0508C66.9241 24.8906 66.6878 24.6738 66.4964 24.4004L67.0647 23.7559C67.3303 24.0762 67.6077 24.2988 67.8967 24.4238C68.1897 24.5488 68.4788 24.6113 68.7639 24.6113C69.1077 24.6113 69.4046 24.5469 69.6546 24.418C69.9046 24.2891 70.0979 24.0977 70.2346 23.8438C70.3753 23.5938 70.4456 23.2852 70.4456 22.918V18.0547L70.5452 16.6602ZM66.18 19.9004V19.7773C66.18 19.293 66.2366 18.8535 66.3499 18.459C66.4671 18.0605 66.6331 17.7188 66.8479 17.4336C67.0667 17.1484 67.3303 16.9297 67.6389 16.7773C67.9475 16.6211 68.2952 16.543 68.6819 16.543C69.0803 16.543 69.428 16.6133 69.7249 16.7539C70.0257 16.8906 70.2796 17.0918 70.4866 17.3574C70.6975 17.6191 70.8635 17.9355 70.9846 18.3066C71.1057 18.6777 71.1897 19.0977 71.2366 19.5664V20.1055C71.1936 20.5703 71.1096 20.9883 70.9846 21.3594C70.8635 21.7305 70.6975 22.0469 70.4866 22.3086C70.2796 22.5703 70.0257 22.7715 69.7249 22.9121C69.4241 23.0488 69.0725 23.1172 68.6702 23.1172C68.2913 23.1172 67.9475 23.0371 67.6389 22.877C67.3342 22.7168 67.0725 22.4922 66.8538 22.2031C66.635 21.9141 66.4671 21.5742 66.3499 21.1836C66.2366 20.7891 66.18 20.3613 66.18 19.9004ZM67.2639 19.7773V19.9004C67.2639 20.2168 67.2952 20.5137 67.3577 20.791C67.4241 21.0684 67.5237 21.3125 67.6565 21.5234C67.7932 21.7344 67.9671 21.9004 68.178 22.0215C68.3889 22.1387 68.6409 22.1973 68.9339 22.1973C69.2932 22.1973 69.5901 22.1211 69.8245 21.9688C70.0589 21.8164 70.2444 21.6152 70.3811 21.3652C70.5217 21.1152 70.6311 20.8438 70.7092 20.5508V19.1387C70.6663 18.9238 70.5999 18.7168 70.51 18.5176C70.4241 18.3145 70.3108 18.1348 70.1702 17.9785C70.0335 17.8184 69.8635 17.6914 69.6604 17.5977C69.4573 17.5039 69.219 17.457 68.9456 17.457C68.6487 17.457 68.3928 17.5195 68.178 17.6445C67.9671 17.7656 67.7932 17.9336 67.6565 18.1484C67.5237 18.3594 67.4241 18.6055 67.3577 18.8867C67.2952 19.1641 67.2639 19.4609 67.2639 19.7773ZM74.3538 16.6602V23H73.2639V16.6602H74.3538ZM73.1819 14.9785C73.1819 14.8027 73.2346 14.6543 73.3401 14.5332C73.4495 14.4121 73.6096 14.3516 73.8206 14.3516C74.0276 14.3516 74.1858 14.4121 74.2952 14.5332C74.4085 14.6543 74.4651 14.8027 74.4651 14.9785C74.4651 15.1465 74.4085 15.291 74.2952 15.4121C74.1858 15.5293 74.0276 15.5879 73.8206 15.5879C73.6096 15.5879 73.4495 15.5293 73.3401 15.4121C73.2346 15.291 73.1819 15.1465 73.1819 14.9785ZM77.178 18.0137V23H76.094V16.6602H77.1194L77.178 18.0137ZM76.9202 19.5898L76.469 19.5723C76.4729 19.1387 76.5374 18.7383 76.6624 18.3711C76.7874 18 76.9632 17.6777 77.1897 17.4043C77.4163 17.1309 77.6858 16.9199 77.9983 16.7715C78.3147 16.6191 78.6643 16.543 79.0471 16.543C79.3596 16.543 79.6409 16.5859 79.8909 16.6719C80.1409 16.7539 80.3538 16.8867 80.5296 17.0703C80.7092 17.2539 80.846 17.4922 80.9397 17.7852C81.0335 18.0742 81.0803 18.4277 81.0803 18.8457V23H79.9905V18.834C79.9905 18.502 79.9417 18.2363 79.844 18.0371C79.7464 17.834 79.6038 17.6875 79.4163 17.5977C79.2288 17.5039 78.9983 17.457 78.7249 17.457C78.4553 17.457 78.2092 17.5137 77.9866 17.627C77.7678 17.7402 77.5784 17.8965 77.4182 18.0957C77.262 18.2949 77.1389 18.5234 77.0491 18.7812C76.9632 19.0352 76.9202 19.3047 76.9202 19.5898Z" fill="white"/>
</g>
<defs>
<filter id="filter0_d_27_14268" x="0" y="0" width="132" height="38" filterUnits="userSpaceOnUse" color-interpolation-filters="sRGB">
<feFlood flood-opacity="0" result="BackgroundImageFix"/>
<feColorMatrix in="SourceAlpha" type="matrix" values="0 0 0 0 0 0 0 0 0 0 0 0 0 0 0 0 0 0 127 0" result="hardAlpha"/>
<feOffset dx="2"/>
<feGaussianBlur stdDeviation="2"/>
<feColorMatrix type="matrix" values="0 0 0 0 0.184314 0 0 0 0 0.501961 0 0 0 0 0.929412 0 0 0 1 0"/>
<feBlend mode="normal" in2="BackgroundImageFix" result="effect1_dropShadow_27_14268"/>
<feBlend mode="normal" in="SourceGraphic" in2="effect1_dropShadow_27_14268" result="shape"/>
</filter>
</defs>
</svg>
