<svg width="128" height="40" viewBox="0 0 128 40" fill="none" xmlns="http://www.w3.org/2000/svg">
<g filter="url(#filter0_d_11512_757)">
<rect x="2" y="4" width="120" height="32" rx="5" fill="#2F80ED"/>
<path d="M48.3184 19.3199V24.4H47.2285V18.0602H48.2598L48.3184 19.3199ZM48.0957 20.9898L47.5918 20.9723C47.5957 20.5387 47.6523 20.1383 47.7617 19.7711C47.8711 19.4 48.0332 19.0777 48.248 18.8043C48.4629 18.5309 48.7305 18.3199 49.0508 18.1715C49.3711 18.0191 49.7422 17.943 50.1641 17.943C50.4609 17.943 50.7344 17.9859 50.9844 18.0719C51.2344 18.1539 51.4512 18.2848 51.6348 18.4645C51.8184 18.6441 51.9609 18.8746 52.0625 19.1559C52.1641 19.4371 52.2148 19.777 52.2148 20.1754V24.4H51.1309V20.2281C51.1309 19.8961 51.0742 19.6305 50.9609 19.4313C50.8516 19.232 50.6953 19.0875 50.4922 18.9977C50.2891 18.9039 50.0508 18.857 49.7773 18.857C49.457 18.857 49.1895 18.9137 48.9746 19.027C48.7598 19.1402 48.5879 19.2965 48.459 19.4957C48.3301 19.6949 48.2363 19.9234 48.1777 20.1813C48.123 20.4352 48.0957 20.7047 48.0957 20.9898ZM52.2031 20.3922L51.4766 20.6148C51.4805 20.2672 51.5371 19.9332 51.6465 19.6129C51.7598 19.2926 51.9219 19.0074 52.1328 18.7574C52.3477 18.5074 52.6113 18.3102 52.9238 18.1656C53.2363 18.0172 53.5938 17.943 53.9961 17.943C54.3359 17.943 54.6367 17.9879 54.8984 18.0777C55.1641 18.1676 55.3867 18.3063 55.5664 18.4938C55.75 18.6773 55.8887 18.9137 55.9824 19.2027C56.0762 19.4918 56.123 19.8355 56.123 20.234V24.4H55.0332V20.2223C55.0332 19.8668 54.9766 19.5914 54.8633 19.3961C54.7539 19.1969 54.5977 19.0582 54.3945 18.9801C54.1953 18.898 53.957 18.857 53.6797 18.857C53.4414 18.857 53.2305 18.898 53.0469 18.9801C52.8633 19.0621 52.709 19.1754 52.584 19.3199C52.459 19.4605 52.3633 19.6227 52.2969 19.8063C52.2344 19.9898 52.2031 20.1852 52.2031 20.3922ZM57.4766 21.3004V21.1656C57.4766 20.7086 57.543 20.2848 57.6758 19.8941C57.8086 19.4996 58 19.1578 58.25 18.8688C58.5 18.5758 58.8027 18.3492 59.1582 18.1891C59.5137 18.025 59.9121 17.943 60.3535 17.943C60.7988 17.943 61.1992 18.025 61.5547 18.1891C61.9141 18.3492 62.2188 18.5758 62.4688 18.8688C62.7227 19.1578 62.916 19.4996 63.0488 19.8941C63.1816 20.2848 63.248 20.7086 63.248 21.1656V21.3004C63.248 21.7574 63.1816 22.1813 63.0488 22.5719C62.916 22.9625 62.7227 23.3043 62.4688 23.5973C62.2188 23.8863 61.916 24.1129 61.5605 24.277C61.209 24.4371 60.8105 24.5172 60.3652 24.5172C59.9199 24.5172 59.5195 24.4371 59.1641 24.277C58.8086 24.1129 58.5039 23.8863 58.25 23.5973C58 23.3043 57.8086 22.9625 57.6758 22.5719C57.543 22.1813 57.4766 21.7574 57.4766 21.3004ZM58.5605 21.1656V21.3004C58.5605 21.6168 58.5977 21.9156 58.6719 22.1969C58.7461 22.4742 58.8574 22.7203 59.0059 22.9352C59.1582 23.15 59.3477 23.3199 59.5742 23.4449C59.8008 23.566 60.0645 23.6266 60.3652 23.6266C60.6621 23.6266 60.9219 23.566 61.1445 23.4449C61.3711 23.3199 61.5586 23.15 61.707 22.9352C61.8555 22.7203 61.9668 22.4742 62.041 22.1969C62.1191 21.9156 62.1582 21.6168 62.1582 21.3004V21.1656C62.1582 20.8531 62.1191 20.5582 62.041 20.2809C61.9668 19.9996 61.8535 19.7516 61.7012 19.5367C61.5527 19.318 61.3652 19.1461 61.1387 19.0211C60.916 18.8961 60.6543 18.8336 60.3535 18.8336C60.0566 18.8336 59.7949 18.8961 59.5684 19.0211C59.3457 19.1461 59.1582 19.318 59.0059 19.5367C58.8574 19.7516 58.7461 19.9996 58.6719 20.2809C58.5977 20.5582 58.5605 20.8531 58.5605 21.1656ZM65.6914 19.0563V24.4H64.6074V18.0602H65.6621L65.6914 19.0563ZM67.6719 18.025L67.666 19.0328C67.5762 19.0133 67.4902 19.0016 67.4082 18.9977C67.3301 18.9898 67.2402 18.9859 67.1387 18.9859C66.8887 18.9859 66.668 19.025 66.4766 19.1031C66.2852 19.1813 66.123 19.2906 65.9902 19.4313C65.8574 19.5719 65.752 19.7398 65.6738 19.9352C65.5996 20.1266 65.5508 20.3375 65.5273 20.568L65.2227 20.7438C65.2227 20.3609 65.2598 20.0016 65.334 19.6656C65.4121 19.3297 65.5312 19.0328 65.6914 18.775C65.8516 18.5133 66.0547 18.3102 66.3008 18.1656C66.5508 18.0172 66.8477 17.943 67.1914 17.943C67.2695 17.943 67.3594 17.9527 67.4609 17.9723C67.5625 17.9879 67.6328 18.0055 67.6719 18.025ZM71.1875 24.5172C70.7461 24.5172 70.3457 24.443 69.9863 24.2945C69.6309 24.1422 69.3242 23.9293 69.0664 23.6559C68.8125 23.3824 68.6172 23.0582 68.4805 22.6832C68.3438 22.3082 68.2754 21.898 68.2754 21.4527V21.2066C68.2754 20.691 68.3516 20.232 68.5039 19.8297C68.6562 19.4234 68.8633 19.0797 69.125 18.7984C69.3867 18.5172 69.6836 18.3043 70.0156 18.1598C70.3477 18.0152 70.6914 17.943 71.0469 17.943C71.5 17.943 71.8906 18.0211 72.2188 18.1773C72.5508 18.3336 72.8223 18.5523 73.0332 18.8336C73.2441 19.1109 73.4004 19.4391 73.502 19.818C73.6035 20.193 73.6543 20.6031 73.6543 21.0484V21.5348H68.9199V20.65H72.5703V20.568C72.5547 20.2867 72.4961 20.0133 72.3945 19.7477C72.2969 19.482 72.1406 19.2633 71.9258 19.0914C71.7109 18.9195 71.418 18.8336 71.0469 18.8336C70.8008 18.8336 70.5742 18.8863 70.3672 18.9918C70.1602 19.0934 69.9824 19.2457 69.834 19.4488C69.6855 19.652 69.5703 19.9 69.4883 20.193C69.4062 20.4859 69.3652 20.8238 69.3652 21.2066V21.4527C69.3652 21.7535 69.4062 22.0367 69.4883 22.3023C69.5742 22.5641 69.6973 22.7945 69.8574 22.9938C70.0215 23.193 70.2188 23.3492 70.4492 23.4625C70.6836 23.5758 70.9492 23.6324 71.2461 23.6324C71.6289 23.6324 71.9531 23.5543 72.2188 23.398C72.4844 23.2418 72.7168 23.0328 72.916 22.7711L73.5723 23.2926C73.4355 23.4996 73.2617 23.6969 73.0508 23.8844C72.8398 24.0719 72.5801 24.2242 72.2715 24.3414C71.9668 24.4586 71.6055 24.5172 71.1875 24.5172ZM74.9375 23.8258C74.9375 23.6422 74.9941 23.4879 75.1074 23.3629C75.2246 23.234 75.3926 23.1695 75.6113 23.1695C75.8301 23.1695 75.9961 23.234 76.1094 23.3629C76.2266 23.4879 76.2852 23.6422 76.2852 23.8258C76.2852 24.0055 76.2266 24.1578 76.1094 24.2828C75.9961 24.4078 75.8301 24.4703 75.6113 24.4703C75.3926 24.4703 75.2246 24.4078 75.1074 24.2828C74.9941 24.1578 74.9375 24.0055 74.9375 23.8258ZM78.1016 23.8258C78.1016 23.6422 78.1582 23.4879 78.2715 23.3629C78.3887 23.234 78.5566 23.1695 78.7754 23.1695C78.9941 23.1695 79.1602 23.234 79.2734 23.3629C79.3906 23.4879 79.4492 23.6422 79.4492 23.8258C79.4492 24.0055 79.3906 24.1578 79.2734 24.2828C79.1602 24.4078 78.9941 24.4703 78.7754 24.4703C78.5566 24.4703 78.3887 24.4078 78.2715 24.2828C78.1582 24.1578 78.1016 24.0055 78.1016 23.8258ZM81.2656 23.8258C81.2656 23.6422 81.3223 23.4879 81.4355 23.3629C81.5527 23.234 81.7207 23.1695 81.9395 23.1695C82.1582 23.1695 82.3242 23.234 82.4375 23.3629C82.5547 23.4879 82.6133 23.6422 82.6133 23.8258C82.6133 24.0055 82.5547 24.1578 82.4375 24.2828C82.3242 24.4078 82.1582 24.4703 81.9395 24.4703C81.7207 24.4703 81.5527 24.4078 81.4355 24.2828C81.3223 24.1578 81.2656 24.0055 81.2656 23.8258Z" fill="white"/>
</g>
<defs>
<filter id="filter0_d_11512_757" x="0" y="0" width="128" height="40" filterUnits="userSpaceOnUse" color-interpolation-filters="sRGB">
<feFlood flood-opacity="0" result="BackgroundImageFix"/>
<feColorMatrix in="SourceAlpha" type="matrix" values="0 0 0 0 0 0 0 0 0 0 0 0 0 0 0 0 0 0 127 0" result="hardAlpha"/>
<feOffset dx="2"/>
<feGaussianBlur stdDeviation="2"/>
<feColorMatrix type="matrix" values="0 0 0 0 0.184314 0 0 0 0 0.501961 0 0 0 0 0.929412 0 0 0 1 0"/>
<feBlend mode="normal" in2="BackgroundImageFix" result="effect1_dropShadow_11512_757"/>
<feBlend mode="normal" in="SourceGraphic" in2="effect1_dropShadow_11512_757" result="shape"/>
</filter>
</defs>
</svg>
